<svg width="80" height="76" viewBox="0 0 80 76" fill="none" xmlns="http://www.w3.org/2000/svg">
<path d="M62.9957 62.0444C52.6941 79.8872 26.9402 79.8872 16.6386 62.0444L3.99578 40.1464C-6.30579 22.3036 6.57115 -1.80118e-06 27.1743 0L52.4599 2.21054e-06C73.0631 4.01172e-06 85.9401 22.3036 75.6385 40.1464L62.9957 62.0444Z" fill="#FFF5F5"/>
<path d="M37.9246 50.3561C39.2777 51.6734 41.4086 51.7152 42.8103 50.4801L42.9431 50.3561L48.2742 45.1656C49.042 46.618 49.4832 48.293 49.4832 50.0826C49.4829 55.7359 45.1259 60.1929 39.9031 60.193C34.6802 60.193 30.3232 55.736 30.323 50.0826C30.323 48.0148 30.9107 46.0995 31.9128 44.5045L37.9246 50.3561ZM27.1638 16.6158C32.3285 16.6159 36.5854 20.4891 37.196 25.4889C36.0128 24.9305 34.7048 24.6296 33.3621 24.6295C28.5274 24.6295 24.5352 28.4556 24.5349 33.2633V33.5953C24.5349 34.6375 24.7221 35.6593 25.074 36.6198C20.4928 35.6569 17.0525 31.5946 17.0525 26.7272C17.0525 21.1431 21.5797 16.6158 27.1638 16.6158ZM53.1726 16.6158C58.7567 16.6158 63.2839 21.1431 63.2839 26.7272C63.2839 31.3868 60.1307 35.3069 55.8425 36.4781C56.1617 35.559 56.3318 34.5866 56.3318 33.5953V33.2633C56.3316 28.4556 52.3402 24.6295 47.5056 24.6295C45.9456 24.6295 44.4322 25.0357 43.1072 25.7809C43.5843 20.6406 47.9078 16.616 53.1726 16.6158Z" fill="#C82525" stroke="#C82525" stroke-width="3.13349"/>
</svg>
