<?xml version="1.0" encoding="UTF-8"?>
<svg width="32" height="32" viewBox="0 0 32 32" fill="none" xmlns="http://www.w3.org/2000/svg">
  <!-- Background circle -->
  <circle cx="16" cy="16" r="16" fill="#4A5568"/>
  <!-- "OD" letters -->
  <path d="M11 10C8.79086 10 7 11.7909 7 14V18C7 20.2091 8.79086 22 11 22C13.2091 22 15 20.2091 15 18V14C15 11.7909 13.2091 10 11 10ZM11 13C11.5523 13 12 13.4477 12 14V18C12 18.5523 11.5523 19 11 19C10.4477 19 10 18.5523 10 18V14C10 13.4477 10.4477 13 11 13Z" fill="white"/>
  <path d="M17 10V22H20C22.2091 22 24 20.2091 24 18V14C24 11.7909 22.2091 10 20 10H17ZM20 13C20.5523 13 21 13.4477 21 14V18C21 18.5523 20.5523 19 20 19H20V13Z" fill="white"/>
</svg> 